<svg id="Layer_1" data-name="Layer 1" xmlns="http://www.w3.org/2000/svg" viewBox="0 0 411.49 293.16"><defs><style>.cls-1{fill:#be9e61;}.cls-2{fill:#be9e62;}.cls-3{fill:#ba9658;}.cls-4{fill:#bc9a5a;}.cls-5{fill:#b08137;}.cls-6{fill:#aa7632;}.cls-7{fill:#a97531;}.cls-8{fill:#b08441;}.cls-9{fill:#b7904b;}.cls-10{fill:#b9924f;}.cls-11{fill:#af813e;}.cls-12{fill:#b08341;}.cls-13{fill:#b58a44;}.cls-14{fill:#b89151;}.cls-15{fill:#b78f4a;}.cls-16{fill:#be9f63;}.cls-17{fill:#be9f64;}.cls-18{fill:#b2843d;}.cls-19{fill:#2e323d;}.cls-20{fill:#fafbfb;}.cls-21{fill:#fdfdfc;}.cls-22{fill:#ab7f40;}.cls-23{fill:#bd9e64;}.cls-24{fill:#dfc66a;}.cls-25{fill:#dec569;}.cls-26{fill:#dec66a;}.cls-27{fill:#dec669;}.cls-28{fill:#be9d60;}.cls-29{fill:#bea166;}.cls-30{fill:#bea066;}.cls-31{fill:#b08546;}.cls-32{fill:#b08142;}.cls-33{fill:#b38743;}.cls-34{fill:#dfc669;}.cls-35{fill:#33373c;}.cls-36{fill:#30323c;}.cls-37{fill:#2e333b;}.cls-38{fill:#2f333c;}.cls-39{fill:#030202;}.cls-40{fill:#33353c;}.cls-41{fill:#35353d;}.cls-42{fill:#020101;}.cls-43{fill:#2e333d;}.cls-44{fill:#020201;}.cls-45{fill:#31343c;}.cls-46{fill:#34353b;}.cls-47{fill:#30333d;}.cls-48{fill:#fefefe;}.cls-49{fill:#010101;}.cls-50{fill:#0c0a05;}.cls-51{fill:#020102;}.cls-52{fill:#be9f62;}.cls-53{fill:#aa7835;}.cls-54{fill:#b38843;}.cls-55{fill:#aa7936;}.cls-56{fill:#b3833b;}.cls-57{fill:#fefdfd;}.cls-58{fill:#f7f4ea;}.cls-59{fill:#f5ecd6;}.cls-60{fill:#fefefd;}.cls-61{fill:#f0e3cf;}.cls-62{fill:#f8f2e8;}</style></defs><path class="cls-1" d="M314.89,107.23a77,77,0,0,1,8.07,1.93c4.19,1.15,8.38,2.29,12.49,3.64,4.69,1.55,9.3,3.32,13.94,5a229.17,229.17,0,0,1,21,9.22c3.45,1.67,6.76,3.61,10.11,5.47a178.77,178.77,0,0,1,15.93,10.15c2.14,1.52,4.22,3.12,6.29,4.72a140.05,140.05,0,0,1,15.71,14.2,130.62,130.62,0,0,1,8.68,10.11c2,2.6,3.68,5.43,5.62,8,2.47,3.33,4.08,7.08,6,10.69a24.38,24.38,0,0,1,2.2,4.75,2.38,2.38,0,0,0-.31,1c-.08.42-.22.81-.68.92-.65.15-.67-.47-.93-.8-.73,2.11-2.19,3-4.92,3-.59,0-1,.07-1.17.65-.41,1.16-1.08,1.58-2.1.56-.4.91.26,2.13-1.14,2.34a1.66,1.66,0,0,1-.77-1.09,88.56,88.56,0,0,0-6.33-13.79,105.65,105.65,0,0,0-8.23-12.39,130.44,130.44,0,0,0-16.16-17.07A139.66,139.66,0,0,0,383,146.64a182.88,182.88,0,0,0-18-10.77q-8.14-4.31-16.65-7.84a248.09,248.09,0,0,0-26.25-9.21c-5.12-1.48-10.28-2.76-15.47-4a2,2,0,0,1-1.2-.58c.07-.95.82-.75,1.34-.68a2,2,0,0,0,2-.81,9.6,9.6,0,0,1,3.6-1.83c.42-.17.88-.22,1.31-.38C315.44,109.88,315.85,108.77,314.89,107.23Z" transform="translate(-36.06 -63.11)"/><path class="cls-2" d="M150.46,342.78c-5.05-1.45-10-3.27-14.88-5.1A222.25,222.25,0,0,1,115,328.79c-4.61-2.27-9.14-4.69-13.57-7.33a180.05,180.05,0,0,1-17.85-11.87c-3.72-2.86-7.37-5.79-10.88-8.91A131.22,131.22,0,0,1,55.54,282a96,96,0,0,1-10.63-17.52c-1-2.08-2.29-4-2.8-6.3a4.28,4.28,0,0,0,4.42-1.53,4.14,4.14,0,0,1,2.23-1.17,7.9,7.9,0,0,0,3.07-1.19c1.3-1,2.23.22,3.29.64a3.28,3.28,0,0,1,1.15,1.92c2.25,6.42,5.76,12.19,9.48,17.8a97.44,97.44,0,0,0,10,12.55A133.87,133.87,0,0,0,88.24,299c3.55,2.93,7.19,5.78,11,8.37a185.32,185.32,0,0,0,19.1,11.55c2.12,1.09,4.25,2.15,6.37,3.24a170,170,0,0,0,16.58,7.19c2.88,1.12,5.68,2.43,8.6,3.46a9.8,9.8,0,0,0,2.94.89c.57.18,1.13.38,1.68.61,1.1.31,1.92,1.18,3.16,1.31,1,.11.58.91.06,1.3a17,17,0,0,1-3.5,2.37c-.42.17-.83.37-1.25.54C151.61,340.39,150.41,341.05,150.46,342.78Z" transform="translate(-36.06 -63.11)"/><path class="cls-3" d="M429.12,280.73a51.27,51.27,0,0,1-4.72,6.06,118.94,118.94,0,0,1-13.62,14.14,154.72,154.72,0,0,1-16.28,12.79,204,204,0,0,1-23.26,13.81,230.38,230.38,0,0,1-23.16,10.19q-12.6,4.72-25.62,8.22c-4.73,1.26-9.48,2.43-14.26,3.45a102.63,102.63,0,0,1-12.79,2.31,4.48,4.48,0,0,1,3.41-2.54,12.76,12.76,0,0,0,5.6-2.51,29,29,0,0,1,4-2.15c2.67-1.36,5.49-2.54,7.64-4.73a2.67,2.67,0,0,1,3.4-.68c-1-1.9,1-1.46,1.35-2.33a90.82,90.82,0,0,1,9.07-3q8.08-2.64,16-5.77c6.79-2.69,13.34-5.9,19.83-9.21,3.74-1.91,7.38-4,11-6.25A164.4,164.4,0,0,0,394.18,300a79.51,79.51,0,0,0,7-6.09,3.7,3.7,0,0,1,1.68-1.27,2.67,2.67,0,0,0,3.4-.82,9.76,9.76,0,0,1,3.13-1.83,106.26,106.26,0,0,0,9.9-5.23c1.58-1,3.59-1.16,4.87-2.69a.83.83,0,0,1,.84-.24c1,.35,1.58-.1,2.16-.88a1.26,1.26,0,0,1,1.74-.4A1.24,1.24,0,0,1,429.12,280.73Z" transform="translate(-36.06 -63.11)"/><path class="cls-4" d="M52.73,176.9a116.55,116.55,0,0,1,7.85-10.13c1-1,1.83-2.18,2.81-3.2,2.55-2.67,5-5.49,7.75-7.89,4.19-3.62,8.3-7.35,12.84-10.56,2.55-1.8,5-3.74,7.62-5.45,3.7-2.42,7.47-4.72,11.28-6.95a192.25,192.25,0,0,1,19.35-9.86c6.31-2.81,12.74-5.34,19.26-7.67q10.44-3.72,21.14-6.48a174.29,174.29,0,0,1,21.31-4.61c.15.83-.49.9-1,1a16.16,16.16,0,0,0-2.06.47c.59.25,1,.58.78,1.22a1.06,1.06,0,0,1-1.38.61h0c-1-.25-1.89.23-2.83.33-.2,0-.5,0-.51.23-.07,1.35-1.17,1.2-2,1.57a49.17,49.17,0,0,0-7.1,3.94c-.69.44-1.22.9-2,.54s-.76.1-.79.6a.81.81,0,0,1-.24.34,5,5,0,0,1-1.63.31c-.57.12-1.22.07-1.08,1,.07.47-.43.83-.89.91-1.12.2-1.42,1-1.5,2-2.34,1.26-4.94,1.77-7.43,2.59q-10.26,3.41-20.15,7.72-8.36,3.65-16.36,8A185.54,185.54,0,0,0,97.5,148.88a141.66,141.66,0,0,0-18.67,16,7.59,7.59,0,0,1-2.3,1.71c-1-.24-1.4-1.06-1.73-2.33-.9,1.77-2.51,2-3.91,2.6-1.07.49-1.81,1.51-3,2a19.17,19.17,0,0,1-4.18,1.32c-.54.12-.92.24-1,.91-.11.9-.63,1.26-1.5.75-.61-.35-.82-.06-.91.49a1.53,1.53,0,0,1-1.1,1.16,3,3,0,0,0-2.06,1.65.57.57,0,0,1-.48.35,4.54,4.54,0,0,0-3,1.46.67.67,0,0,1-.94-.07Z" transform="translate(-36.06 -63.11)"/><path class="cls-5" d="M37.5,240.53a4.3,4.3,0,0,1-.85-2.79,84.54,84.54,0,0,1-.18-18.27,141.65,141.65,0,0,1,2.9-14.57c.29-.53.6-1,.88-1.59.82-1.59,1.72-3.11,3.76-3.42a4.55,4.55,0,0,0,1.89-1,14.72,14.72,0,0,1,4.61-2.28,3.28,3.28,0,0,0,2-1.35c1.09-1.71,1.4-1.7,2.67,0,.38-.57.26-1.29.58-1.87.23-.41.46-.86,1-.75s.58.64.55,1.1a6.47,6.47,0,0,0-.11,1.81,52.43,52.43,0,0,1-2,5.81c-1.91,4-2.6,8.41-3.46,12.74A91.36,91.36,0,0,0,50.46,227c-.16,2.88.34,5.76.41,8.64-.11,1.09-.67,1.08-1.69,1.17a10.44,10.44,0,0,0-4.41,1.81A11.15,11.15,0,0,1,41.58,240c-1,.24-1.66.68-1.67,1.82,0,.57-.19,1.21-.84,1.29s-.86-.6-1-1.13A4.18,4.18,0,0,0,37.5,240.53Z" transform="translate(-36.06 -63.11)"/><path class="cls-6" d="M447.38,230.56a59.56,59.56,0,0,1-2.26,17,87.77,87.77,0,0,1-3.93,11.8c-2,3.22-5.27,4.58-8.55,6a41,41,0,0,0-4.87,3.06c-.7.44-1.33.94-2.23.68-.62-.18-.88.3-1.21.7-1.2,1.46-1.25,1.45-2.53,0-.17-.18-.38-.33-.42-.61a56.58,56.58,0,0,0,3.26-6.16,78.27,78.27,0,0,0,8-26.93,16.29,16.29,0,0,1,.87-2.89c3.57-1.6,7.48-2.49,10.57-5.07a3.4,3.4,0,0,1,1.08-.53c1.87-.68,2.36-.34,2.35,1.67A2.78,2.78,0,0,1,447.38,230.56Z" transform="translate(-36.06 -63.11)"/><path class="cls-7" d="M222.89,355.61h-2.41c-1.29-.21-2.47-.87-3.91-.49-.91.24-1.11-1-1.62-1.52-.25-.28.22-.66.58-.69,2-.14,3.58-1.35,5.32-2.15a7.21,7.21,0,0,1,1.27-.48c.63-.14,1.17-.12,1.13-1.14s.89-1.12,1.72-1.1a9,9,0,0,0,1.64.17c-2.54-.58-5.16-.31-7.72-.69a3.74,3.74,0,0,1-1.48-.24c-.47-.27-.37-.53.06-.75,2.95-.51,5.85.26,8.78.25.45,0,.91.14,1.36.14,6.44,0,12.87.54,19.31.31,11.29-.41,22.57-1,33.78-2.53a5,5,0,0,1,2.11,0c.71.32.46.59,0,.92a14.64,14.64,0,0,1-3.75,1.93c-2.74.89-4.94,2.72-7.42,4-1.16.62-2.32,1.21-3.53,1.71a3.29,3.29,0,0,0-1.9,1.41c-.41.76-1.25.51-1.91.62s-1.42-.12-2.07.29c-9.49.78-19,.72-28.52.65-2,0-3.93-.22-5.9-.34C226.17,355.5,224.51,356,222.89,355.61Z" transform="translate(-36.06 -63.11)"/><path class="cls-8" d="M447.38,230.56a2.43,2.43,0,0,0-.05-.6c-.12-.75.42-1.81-.59-2.16a2.59,2.59,0,0,0-2.47.78,15.88,15.88,0,0,1-7,3.41c-.46.12-.64.44-.91.72a2.12,2.12,0,0,1-2.74.51,1.36,1.36,0,0,1-.33-1.3,43,43,0,0,0,0-8.64c-1-6.24-1.78-12.54-3.62-18.63-.19-.61-.5-1.26,0-1.89.81-.44.61-1.19.51-1.87-.06-.38-.1-.74.22-1s.66.13.85.39c.6.84.89.56,1.16-.23s.25-1.83,1.84-1.11,3.79-1.19,4.22-2.94c.08-.31.14-.67.47-.7.56-.06.38.44.44.75s-.12.81.46.73c.35-.05.44-.38.32-.71-.25-.68.38-.69.71-.93l.34.9c.29.81.18,1.77.88,2.44,1.27,4.7,3.4,9.13,4.14,14a110,110,0,0,1,1.32,17A5.65,5.65,0,0,1,447.38,230.56Z" transform="translate(-36.06 -63.11)"/><path class="cls-9" d="M56.9,195.46c-.52-.59,0-1.14,0-1.72,0-.31.19-.79-.33-.85-.35,0-.48.31-.55.61a12.52,12.52,0,0,0-.3,1.48,1.17,1.17,0,0,1-.76,1.2c-.19-.41-.37-.83-.58-1.23s-.26-.69-.73-.64A.76.76,0,0,0,53,195a2.55,2.55,0,0,1-2.14,1.92,14.68,14.68,0,0,0-5.12,2.56,3.08,3.08,0,0,1-1.2.63c-2.21.32-3.29,1.84-4.14,3.69-.2.43-.68.72-1,1.08a44.08,44.08,0,0,1,3.14-9.43c1.91-3.93,3.39-8.1,5.81-11.74,1.51-2.26,2.72-4.7,4.41-6.83a1.13,1.13,0,0,0,1.2-.5,1.88,1.88,0,0,1,2.12-1c.24,0,.68-.08.69-.16.17-1.61,1.62-1.57,2.63-2.08.45-.24.75-.51.51-1.07a.57.57,0,0,1,.2-.78.51.51,0,0,1,.17-.07.78.78,0,0,1,1,.23c.21.27.4.65.84.43s.41-.63.25-1.05c-.26-.68,0-.83.69-.84a9.87,9.87,0,0,0,6.12-2.15,9.8,9.8,0,0,1,3.7-1.93c.8-.25.93-1.16,1.52-1.63.28-.22.54-.55.92-.35s.1.53,0,.8c-.23,1,.87,1.13,1.1,1.83s-.21.93-.53,1.27a100.63,100.63,0,0,0-13,17.32,93.12,93.12,0,0,0-5,9.15C57.59,194.74,57.43,195.25,56.9,195.46Z" transform="translate(-36.06 -63.11)"/><path class="cls-10" d="M159.59,119c-.72-1.14-.09-1.67.92-2,.7-.22,1.91-.06.79-1.37-.27-.32.16-.45.48-.51a10.81,10.81,0,0,1,3-.3c.32.28.47.75,1,.87-.24-.42-.75-.5-1-.87a2.36,2.36,0,0,0-.51-1.51,3,3,0,0,1,.9.07c1,.61,1.61.35,2.64-.46a15,15,0,0,1,3.84-2.2c1.47-.54,2.57-2,4.38-1.76a.49.49,0,0,0,.46-.75c-.85-1.49.24-.78.86-.86,1.17-.15,2.28-.7,3.51-.22.27.1.55-.22.6-.56.06-.51-.31-.52-.68-.59s-1,.23-.89-.43c0-.5.7-.25,1-.41,1-.61,2.37.17,3.12-1,3.06-.85,6.22-1.16,9.34-1.71,2.23-.4,4.48-.68,6.73-.93.79-.1,1-.43,1-1.17a33.14,33.14,0,0,1,2-10.8c.59-1.56,1.46-3,2.21-4.53.24-.44.66-.73.92-1.17.66-1.14.78-1.13,1.69,0-1,2.5-2,5-2.75,7.56-.89,3.17-1.92,6.32-1.87,9.65a37,37,0,0,0,6,20,34.42,34.42,0,0,0,12.45,11.61c.44.24.92.47,1,1.06a1.81,1.81,0,0,1-2.1.61A3.66,3.66,0,0,0,219,134a2.4,2.4,0,0,1-1.4-.53c-6-4.26-10.84-9.42-13.62-16.33a5.69,5.69,0,0,0-.91-1.54,14.89,14.89,0,0,1-1.21-3.43,1.61,1.61,0,0,0-1.76-1.44,1.28,1.28,0,0,0-.34.07c-3.26.48-6.52,1-9.76,1.54-8.29,1.41-16.47,3.36-24.62,5.42-1.32.33-2.63.73-3.94,1.14C160.88,119.05,160.24,119.4,159.59,119Z" transform="translate(-36.06 -63.11)"/><path class="cls-11" d="M217.14,346.74c1.67.63,3.45.42,5.17.59,1.55.14,3.12.17,4.67.35.35.05.79,0,.73.53a.71.71,0,0,1-.79.57,15.47,15.47,0,0,1-1.76-.41,1.41,1.41,0,0,0-1.6.56c-.54.77.5.8.74,1.45-3.53-.31-5.7,3.06-9.17,2.88.15.76,1.71.26,1,1.49-.13.25.45.3.56.21,1.5-1.22,2.55.12,3.74.61-3.86-.32-7.74-.59-11.6-1-4.1-.41-8.21-.88-12.3-1.43-2.91-.39-5.81-.95-8.71-1.44a.78.78,0,0,0-1-.44.77.77,0,0,0-.18.1,40.48,40.48,0,0,1-7-1.19c-.61-1.06-1.69-.29-2.49-.64l-1.12-.08c-.34-1.06.42-1.31,1.16-1.5a8.52,8.52,0,0,1,1.82-.11,1.85,1.85,0,0,0,1.57-.78,6.06,6.06,0,0,1,5.63-2.9,4.31,4.31,0,0,0,3.14-1.31,3.08,3.08,0,0,1,1.65,0q12.3,2.08,24.71,3.17C216.28,346.08,216.85,346.14,217.14,346.74Z" transform="translate(-36.06 -63.11)"/><path class="cls-12" d="M262.21,355.56c.54-.91,1.44-.52,2.2-.56s1.3,0,1.64-.91c.46-1.18,1.82-1.18,2.79-1.6a36,36,0,0,0,6.5-3.71,24.17,24.17,0,0,1,4.58-2.14c1.16-.52,2-1.58,3.28-1.76.18-.74.84-.63,1.35-.7,9.52-1.34,18.92-3.26,28.27-5.51,1.67-.4,3.31-.92,5-1.37,1.07,0,2.06-.92,3.19-.29-.26.79-1,.85-1.59.89-.23.83,1.23.42.76,1.23-.35.6-.94.23-1.37,0-1.71-.69-2.44.88-3.42,1.6-1.21.89-2.52,1.6-3.71,2.43-2.36,1.63-5.32,2-7.48,4.13-.72.69-1.78,2-3.32,1.59-.34-.08-.5.25-.57.58s-.24.68-.57.28c-.78-1-1.28-.3-1.83.24-.73.7-1.81.87-2.46,1.67-3.54.85-7.15,1.23-10.74,1.73-7,1-14.06,1.56-21.1,2.18A10.9,10.9,0,0,1,262.21,355.56Z" transform="translate(-36.06 -63.11)"/><path class="cls-13" d="M314.89,107.23c.56.37,1.64.66,1.33,1.36a3.7,3.7,0,0,1-2.08,2.23,23.2,23.2,0,0,0-3.7,1.3c-.67.35-1.38.54-1.76,1.31a1.07,1.07,0,0,1-1.37.65l-.13-.06a1.66,1.66,0,0,0-1.73.12c-.64.61-1.36.25-2,.1-6.28-1.43-12.63-2.44-19-3.42-2.17-.33-2.39-.22-2.94,1.94-.26,1-.94,2-.07,3-.17.83-1.33.56-1.52,1.37a21.81,21.81,0,0,1-2.58,4.43c-.21.35-.45.7-.95.62-.78-.28-.86-.9-.73-1.59s.38-1.45.46-2.19a10.17,10.17,0,0,1,1.33-3.34c1.61-3.1,2.07-6.48,2.74-9.82a14.55,14.55,0,0,0,.14-3.55V99.31a2.77,2.77,0,0,1,.48-2.13c.39-.4.84-.73,1.44-.34.09.7.18,1.4.26,2.1.3,2.43.3,2.42,2.77,2.72,7,.85,14,2.15,20.89,3.54,1.92.39,3.7,1.28,5.67,1.37.93.24,1.88.35,2.81.57A.25.25,0,0,1,314.89,107.23Z" transform="translate(-36.06 -63.11)"/><path class="cls-12" d="M421.56,269.45a1.21,1.21,0,0,1,1.19,1.23v.06a1.48,1.48,0,0,0,1.08-.81c.56-.84,1-1.85,2.27-1,.13.09.51-.05.68-.2,1.53-1.34,3.57-1.92,5-3.38.54-.56,1.22-.38,1.81-.63,2.09-.88,3.83-2.34,5.83-3.38a1.84,1.84,0,0,0,.84-1.22.85.85,0,0,1,1-.74,92.78,92.78,0,0,1-7.42,14.52,54.66,54.66,0,0,1-4.65,6.82,1.71,1.71,0,0,0-2.16,1.09v0a.92.92,0,0,1-1.11.68.91.91,0,0,1-.38-.19c-.72-.49-1.1,0-1.58.35-2.37,1.88-5.29,2.77-7.83,4.37-3.24,2-7,3.12-10.1,5.38a1.47,1.47,0,0,0-.43.43c-.53,1.09-1.17,1.11-2,.26-.15-.16-.46-.18-.69-.27-.14-.67.38-1,.76-1.38A117,117,0,0,0,415,278.56a85,85,0,0,0,5.41-8C420.68,270.09,420.9,269.52,421.56,269.45Z" transform="translate(-36.06 -63.11)"/><path class="cls-14" d="M189.13,343.11c.15.35.24.72-.25.85a8,8,0,0,1-2.77.68A5,5,0,0,0,181,347.4c-.6,1.08-1.69.9-2.7.89s-2-.18-2.24,1.18a245.27,245.27,0,0,1-25.58-6.69c-.65-1.35-.13-2.15,1.17-2.7a21.15,21.15,0,0,0,5.68-3.27c.25-.22.67-.29.61-.88-1.47.35-2.38-.77-3.5-1.36a1.35,1.35,0,0,1,1.43-.15,274.92,274.92,0,0,0,27.53,7.05c1.49.3,3,.55,4.47.87C188.34,342.44,189,342.31,189.13,343.11Z" transform="translate(-36.06 -63.11)"/><path class="cls-15" d="M37.5,240.53a1.3,1.3,0,0,1,.94,1.37c0,.36.11.91.63.86.35,0,.54-.52.5-.85-.21-1.75.89-2,2.27-2.43a18.36,18.36,0,0,0,5.07-2.57c.21-.15.42-.42.64-.31,1,.47,1.32-.23,1.72-.89.44.18.65,1.78,1.24.24.45.29.43.77.49,1.21a96.16,96.16,0,0,0,3.15,14.33,11.26,11.26,0,0,0,.85,2.1c.25.48.55,1,.12,1.54-1.88-1.39-3.47.06-5.23.4-1.93.38-3.19,1.59-4.63,2.64a2.26,2.26,0,0,1-3.15,0,72.86,72.86,0,0,1-4.32-15.11A6.59,6.59,0,0,1,37.5,240.53Z" transform="translate(-36.06 -63.11)"/><path class="cls-16" d="M207.73,83.82c-.55-.58-1-1-1.36.22-.1.38-.73.62-1.11.92a32.05,32.05,0,0,1,6.06-8.74A38.62,38.62,0,0,1,226,66.13a40.15,40.15,0,0,1,19.14-2.84c1.44.15,2.93-.08,4.28.65-.72.52-1.51,1-2.24,1.47a6.32,6.32,0,0,1-2.41.14c-12.2-.94-22.56,3.11-31.26,11.6a56.36,56.36,0,0,0-4.58,5.66C208.61,83.23,208.42,83.82,207.73,83.82Z" transform="translate(-36.06 -63.11)"/><path class="cls-17" d="M282.25,96.85c-1.62.14-1.48,1.34-1.49,2.45-.74-.1-.61-.71-.66-1.17-.73-8.18-4.39-15-9.88-20.9A36.63,36.63,0,0,0,263.94,72c-.45-.32-1-.58-1.19-1.13.27-.61,1.27-.54,1.28-1.38a19.94,19.94,0,0,1,4.78,3.29,43.75,43.75,0,0,1,9.09,11A37,37,0,0,1,282.25,96.85Z" transform="translate(-36.06 -63.11)"/><path class="cls-18" d="M264,69.48c.9,1.74-.46,1.15-1.22,1.18-.66.24-1.18-.14-1.7-.42a39.07,39.07,0,0,0-12.64-4.32c-.47-.07-1,0-1.23-.67a2.15,2.15,0,0,1,2.19-1.31h0c1,.33,2.06.1,3,.64a33.08,33.08,0,0,1,8.59,3A16.24,16.24,0,0,1,264,69.48Z" transform="translate(-36.06 -63.11)"/><path class="cls-14" d="M177.16,349.55c.58.06,1-.44,1.53-.44a.91.91,0,0,1,1,.82.76.76,0,0,1,0,.26A5.34,5.34,0,0,1,177.16,349.55Z" transform="translate(-36.06 -63.11)"/><path class="cls-11" d="M222.89,355.61c1.63.09,3.29-.31,4.9.26A17.88,17.88,0,0,1,222.89,355.61Z" transform="translate(-36.06 -63.11)"/><path class="cls-1" d="M442.13,198.52c-1.29-.46-.79-1.56-.88-2.44A5.61,5.61,0,0,1,442.13,198.52Z" transform="translate(-36.06 -63.11)"/><path class="cls-1" d="M314.65,107.15a4.2,4.2,0,0,1-2.81-.57A5.47,5.47,0,0,1,314.65,107.15Z" transform="translate(-36.06 -63.11)"/><path class="cls-16" d="M252.41,64.58a8.15,8.15,0,0,1-3-.64A4.24,4.24,0,0,1,252.41,64.58Z" transform="translate(-36.06 -63.11)"/><path class="cls-14" d="M186.68,351.38c0-.39.18-.7.64-.58s.58.49.55.92C187.47,351.62,187,351.76,186.68,351.38Z" transform="translate(-36.06 -63.11)"/><path class="cls-19" d="M421.56,269.45c-1.35,2.13-2.57,4.36-4.07,6.38a78.5,78.5,0,0,1-7.53,9.42,28.92,28.92,0,0,0-3.09,3.54c-1.15,1.57-2.93,2.47-4,4.08-3,2.66-5.87,5.44-9,7.93a173.57,173.57,0,0,1-23,15.57q-7.78,4.41-15.94,8.13a235.23,235.23,0,0,1-28.25,10.7L321,337l-3,.65c-.3-.54,0-1,.26-1.41a16.78,16.78,0,0,0,1.12-3.14,1.27,1.27,0,0,0-.53-1.57c.06-.67.64-.74,1.1-.87,7.19-2.15,14.33-4.47,21.32-7.2,4.49-1.75,8.89-3.7,13.25-5.75a189.9,189.9,0,0,0,22-12.27c2.89-1.86,5.67-3.9,8.46-5.94A147,147,0,0,0,399.45,287a100.14,100.14,0,0,0,8.38-9.21,94.27,94.27,0,0,0,10.5-15.8,73,73,0,0,0,8.14-26.59,76.83,76.83,0,0,0-2.54-28.74A80.08,80.08,0,0,0,416.66,190a89.31,89.31,0,0,0-11.39-15.92,107.63,107.63,0,0,0-11-11.09A168.69,168.69,0,0,0,373,147.31a196.72,196.72,0,0,0-24-12.53,225,225,0,0,0-31-11c-8.57-2.35-17.21-4.35-26-5.84-2.85-.48-5.69-1-8.57-1.33-.77-.1-1.64,0-2.22-.74-.94-.15-1.22-.57-.79-1.5a13.43,13.43,0,0,0,.72-2.31c.57-2.11.56-2.14,2.78-1.79,7,1.08,14,2.17,20.84,3.81a3,3,0,0,0,.6,0c4.25,1.1,8.55,2.05,12.79,3.21q11.07,3,21.81,7a209.74,209.74,0,0,1,29.34,13.5,183.21,183.21,0,0,1,17,10.78,143.47,143.47,0,0,1,11.85,9.45,139,139,0,0,1,11.17,11.08A113.1,113.1,0,0,1,421,184.67a123.92,123.92,0,0,1,6,11.69c1,2.09,1.73,4.29,2.64,6.4a115,115,0,0,1,2.86,12.71c.36,2.58.74,5.15,1.12,7.72a80.73,80.73,0,0,1,0,8.8v1.23c-1.37,8.07-2.45,16.24-5.77,23.8-1.73,3.92-3.4,7.9-5.52,11.65C422.15,269.08,421.7,269.06,421.56,269.45Z" transform="translate(-36.06 -63.11)"/><path d="M318.79,331.51c1.12-.09,1.35.3,1,1.41a23.81,23.81,0,0,1-1.86,4.74,142,142,0,0,1-14.66,3.64c-6.55,1.42-13.15,2.61-19.81,3.44-.09,0-.17.09-.26.14-5.53.57-11,1.35-16.59,1.73-3.39.23-6.76.55-10.15.71q-14.35.65-28.71,0c-3.54-.17-7.07-.4-10.61-.59-2.4-.28-4.79-.61-7.2-.84-6.47-.61-12.9-1.54-19.31-2.65-.49-.08-1-.09-1.5-.14-4.57-1-9.14-1.94-13.71-2.94-6.65-1.45-13.19-3.32-19.69-5.33a3,3,0,0,0-1.31-.27,4.14,4.14,0,0,1-1.63-.58,17.85,17.85,0,0,1-2.94-.91,74.34,74.34,0,0,1-7.52-2.9,201.92,201.92,0,0,1-24.05-10.85,184.92,184.92,0,0,1-16.92-10.08c-4-2.75-8-5.63-11.79-8.75A145,145,0,0,1,78,289.89a125.74,125.74,0,0,1-11.29-13.41c-2.11-2.86-3.73-6-5.67-8.93-2.55-3.88-4-8.22-5.87-12.42A53.34,53.34,0,0,1,52,244.88,61.36,61.36,0,0,1,50.53,236a81.23,81.23,0,0,1,3.39-33,6.47,6.47,0,0,1,1-2c1.9-1.36,4.15-1.65,6.35-2,.53-.09.83.27.9.79a9.37,9.37,0,0,1-1,3.18,61,61,0,0,0-4.09,18.32,67.18,67.18,0,0,0,2.47,26.18c1.87,6.07,4,12.14,7.58,17.52.93,1.38,1.63,2.91,2.52,4.33a100.75,100.75,0,0,0,10.57,13.52,119.35,119.35,0,0,0,13.57,12.84,150.19,150.19,0,0,0,18.94,13.2c4.57,2.65,9.14,5.27,13.88,7.58a224.94,224.94,0,0,0,31.65,12.53,267.21,267.21,0,0,0,39,9c6.86,1.06,13.77,1.77,20.69,2.39a308.58,308.58,0,0,0,34,.8c6.62-.13,13.25-.65,19.85-1.36,7.92-.85,15.81-1.89,23.64-3.36,6.93-1.3,13.8-2.84,20.61-4.68C316.92,331.46,317.82,330.9,318.79,331.51Z" transform="translate(-36.06 -63.11)"/><path class="cls-14" d="M149.85,333.08a9.84,9.84,0,0,1,2.94.91A4.13,4.13,0,0,1,149.85,333.08Z" transform="translate(-36.06 -63.11)"/><path class="cls-14" d="M148.21,340.84c.46-.26.84-.23,1.11.22,0,.07,0,.31-.14.35C148.63,341.66,148.42,341.28,148.21,340.84Z" transform="translate(-36.06 -63.11)"/><path class="cls-19" d="M61.85,199.74c-.09-.42-.26-.51-.74-.42-2.11.39-4.14,1.11-6.22,1.66l2-5.52a99.72,99.72,0,0,1,10.58-18c2.76-3.82,5.9-7.29,8.9-10.9,3.81-3.54,7.42-7.29,11.41-10.64A163,163,0,0,1,105.55,143a191.06,191.06,0,0,1,22.39-12.11,225.93,225.93,0,0,1,30.51-11.47c.38-.12.76-.28,1.14-.42,8.12-2.42,16.37-4.36,24.69-6,5.3-1.06,10.64-1.94,16-2.7,1.07-.15,1.66.06,1.9,1.25.3,1.43.82,2.81,1.25,4.22-.37.6-1,.61-1.6.7-8.59,1.19-17.12,2.72-25.57,4.71A243,243,0,0,0,141.59,132,206.79,206.79,0,0,0,119,142.53a164,164,0,0,0-23,15.16A129.81,129.81,0,0,0,78.59,174a98.31,98.31,0,0,0-11.65,16.28,78.47,78.47,0,0,0-4.25,8.57C62.53,199.22,62.49,199.78,61.85,199.74Z" transform="translate(-36.06 -63.11)"/><path class="cls-6" d="M433.69,232v-8.8A30.89,30.89,0,0,1,433.69,232Z" transform="translate(-36.06 -63.11)"/><path class="cls-4" d="M74,166a.62.62,0,0,1,.54.63.38.38,0,0,1-.34.43h-.12a.53.53,0,0,1-.58-.66A.49.49,0,0,1,74,166Z" transform="translate(-36.06 -63.11)"/><path class="cls-19" d="M276.52,122.1a30.76,30.76,0,0,0,3.08-5.18c2.47-.36,4.85.31,7.23.68A260.63,260.63,0,0,1,320.55,125c6.66,2,13.25,4.17,19.73,6.71a197.38,197.38,0,0,1,19.42,8.71,170.33,170.33,0,0,1,21,12.59,143.2,143.2,0,0,1,17.45,14.4,121.38,121.38,0,0,1,11.47,12.94,89,89,0,0,1,10,16.62,72.45,72.45,0,0,1,6.56,24.84,70,70,0,0,1-3.07,27.32A64.2,64.2,0,0,1,416,265c-.84,1.26-1.55,2.62-2.32,3.93A73.34,73.34,0,0,1,406,279.29,125.63,125.63,0,0,1,391.09,294a155.33,155.33,0,0,1-18.76,13.47A190.81,190.81,0,0,1,350.41,319c-6.22,2.74-12.53,5.26-19,7.48q-4.67,1.62-9.43,3c-.53.15-1.1.35-1.5-.28a11.35,11.35,0,0,1,.53-3.88,78.68,78.68,0,0,0-.74-31.91,38.85,38.85,0,0,0-2.16-7.41c-.4-.88-.78-1.76-1.88-2-.28-.06-.73-.29-.29-.74a3.31,3.31,0,0,1,1.78-.32h6.09c2,0,2.49.36,2.51,2.47v12.33c0,1.76.19,1.91,1.92,1.93s2-.12,2-2V285.54c0-2.22.33-2.53,2.57-2.56h5.48c1,0,1.7-.18,1.66-1.41s-.78-1.26-1.65-1.26H318.36a4.54,4.54,0,0,1-2.52-.36,2,2,0,0,1-.48-.77c-1.92-4.83-4.86-9.11-7.4-13.61a2.41,2.41,0,0,0-2.33-1.39H106.74a14.46,14.46,0,0,1-2.28,0c-.48-.08-1.21.07-1.17-.81a2.35,2.35,0,0,1,1.58-.43H379.93c1.52-.05,1.7-.27,1.76-1.63s-.65-1.67-1.8-1.61h-72.6a15.39,15.39,0,0,1-2.88-.11,2.87,2.87,0,0,1-1.58-1.13c-1.82-2.3-3.76-4.5-5.75-6.66s-4-4.28-6.1-6.33a3.08,3.08,0,0,0-2.37-.77h-9.27a3.37,3.37,0,0,1-1.63-.24c-.32-.18-.44-.42-.08-.69a5.36,5.36,0,0,1,2.25-.25h14.61c1.89,0,2.08-.15,1.69-2-2.3-11.28-3.92-22.67-5.93-34-.32-1.79-.24-3.18,1.3-4.45a9.7,9.7,0,0,0,2.66-4.72A31.69,31.69,0,0,0,295,181c-.24-1-.41-2.09-.59-3.14-1.22-6.83-5.45-10.64-12.06-12a32.27,32.27,0,0,0-6.64-.76H252c-2,0-2.11.06-2.11,2.16V214.1a8.16,8.16,0,0,1-.17,2.56.66.66,0,0,1-.85.39l-.15-.08c-2.85-1.38-5.76-2.64-8.63-4a1.4,1.4,0,0,1-.62-.65c-.77-1.77-.5-3.69-.73-5.54-1.16-9.27-2.73-18.47-6.1-27.2-1.8-4.64-3.73-9.31-6.81-13.36a2.92,2.92,0,0,0-2.6-1.21H210.62a2.84,2.84,0,0,0-2.73,1.48,74.7,74.7,0,0,0-9,20.51,96.48,96.48,0,0,0-2.39,10.49c-.07.45-.1.93-.64,1.11-2.87-.75-5.81-1.18-8.71-1.85-1-.22-1.88-.37-2.63.5-.15.17-.37.07-.5-.13a5.1,5.1,0,0,1-.27-2.39V167c0-2.11,0-2.16-2.1-2.16H162.06a4.11,4.11,0,0,0-3.47,1.47,53.38,53.38,0,0,0-9.78,16.86c-.29.78-.33,2-1.22,2.1s-1-1.22-1.42-1.93c-1.17-2.14-1.94-4.46-3-6.66a62.2,62.2,0,0,0-6.93-10.51,3.13,3.13,0,0,0-2.73-1.32h-20.7c-1.62,0-1.77.17-1.77,1.9v73.94c0,2.67,0,2.67,2.68,2.67h12.94c.74,0,1.54-.13,2.15.49-.18.83-.9.72-1.45.73q-7.85.06-15.68,0a1.66,1.66,0,0,1-1.87-1.42,1.69,1.69,0,0,1,0-.45V193.91c0-1.17-.41-1.56-1.65-1.48-10.18.72-20.28,2.1-30.33,3.83q-5.17.9-10.29,2.09a18.19,18.19,0,0,1-3.43.64c-1.12-.44-.45-1.17-.21-1.72a79.44,79.44,0,0,1,6.39-11.57A114.27,114.27,0,0,1,89.18,164a158,158,0,0,1,34.41-23.28c2.09-1,4.15-2.12,6.26-3.12,4.76-2.27,9.6-4.37,14.53-6.23,6.31-2.39,12.69-4.55,19.18-6.42q7.77-2.24,15.64-4a215.71,215.71,0,0,1,23.67-4.12c.49,0,1-.26,1.46.14a26.92,26.92,0,0,0,4.26,7.45c3,3.54,6.07,7.1,10.3,9.33a16.24,16.24,0,0,1,3.56,1.66,42.82,42.82,0,0,0,35.61,1.5A39.44,39.44,0,0,0,271.2,128a33.45,33.45,0,0,0,4.52-5.28A1.28,1.28,0,0,1,276.52,122.1Z" transform="translate(-36.06 -63.11)"/><path class="cls-20" d="M204.33,117c-3.34.49-6.69,1-10,1.49a251.73,251.73,0,0,0-35.74,8.42,224.53,224.53,0,0,0-22.89,8.51c-5.89,2.58-11.64,5.4-17.26,8.53a163.32,163.32,0,0,0-17.24,11c-4,2.93-7.85,6-11.54,9.31A123.9,123.9,0,0,0,78,176.08a92.54,92.54,0,0,0-11.41,16.68,54.51,54.51,0,0,0-2.93,6.06,2.51,2.51,0,0,1-.34,1.89,75.61,75.61,0,0,0-5,19.22,68,68,0,0,0,2,25.48,75.1,75.1,0,0,0,5.5,14.64,94,94,0,0,0,11.12,17c2.5,3,5.11,5.87,7.87,8.65q4.5,4.51,9.43,8.57a160.8,160.8,0,0,0,23.87,16.19,204.61,204.61,0,0,0,20.36,9.92,236.24,236.24,0,0,0,26.13,9.12,266.48,266.48,0,0,0,31.48,6.91c7.56,1.21,15.17,2,22.8,2.66a287.69,287.69,0,0,0,31.76.8c6.82-.16,13.65-.68,20.46-1.34,8.39-.82,16.71-2.06,25-3.58q10.93-2,21.63-5.06a5.63,5.63,0,0,1,3-.47c4.42-1.11,8.72-2.61,13-4.13a206.2,206.2,0,0,0,24.54-10.46,188.76,188.76,0,0,0,16.61-9.44,148.18,148.18,0,0,0,17.7-13.23A127.86,127.86,0,0,0,403.88,281a101.73,101.73,0,0,0,11.67-16A94.91,94.91,0,0,0,421,253.73c4.58-10.62,5.7-21.73,4.77-33.12A58.29,58.29,0,0,0,422.17,204a84.8,84.8,0,0,0-5.57-12.56,112,112,0,0,0-11.28-16.06A128.2,128.2,0,0,0,394,164a147.53,147.53,0,0,0-17.67-13.52,172.23,172.23,0,0,0-15.83-9.22,221.76,221.76,0,0,0-36.8-14.88c-7.08-2.15-14.21-4-21.45-5.55a180.7,180.7,0,0,0-22.17-3.65c-.18,0-.35-.19-.52-.29.17-1,.92-1,1.7-1A269,269,0,0,1,323.54,125,231.49,231.49,0,0,1,345.68,133q9.24,3.89,18.06,8.62a171.28,171.28,0,0,1,17,10.42c4.1,2.87,8.06,5.91,11.86,9.17a131.66,131.66,0,0,1,11.41,11,109.22,109.22,0,0,1,11.51,15.14,91.55,91.55,0,0,1,5.72,11.15c5.41,11.65,6.81,23.93,5.69,36.58a63.81,63.81,0,0,1-4.65,19.43,81.14,81.14,0,0,1-5.68,11.67c-1.83,2.9-3.64,5.83-5.71,8.55a120.56,120.56,0,0,1-11.26,12.85,129.43,129.43,0,0,1-11.47,10.1,165.45,165.45,0,0,1-17,11.66,191.26,191.26,0,0,1-17.27,9.16,222.78,222.78,0,0,1-34.12,12.63,7.24,7.24,0,0,0-1,.41c-3.53.88-7,1.81-10.59,2.64a287.21,287.21,0,0,1-39,6.29,301.07,301.07,0,0,1-43,.85,284.33,284.33,0,0,1-38.92-4.66,255.66,255.66,0,0,1-34.64-9.06,217.24,217.24,0,0,1-22.51-9,189.9,189.9,0,0,1-17.66-9.38c-3.76-2.28-7.44-4.65-11-7.21a142.88,142.88,0,0,1-11.85-9.4,127.22,127.22,0,0,1-11.43-11.44A105.2,105.2,0,0,1,66.5,264.8a89.92,89.92,0,0,1-5.55-12c-4.25-10.39-5.19-21.23-4.28-32.29A64.12,64.12,0,0,1,60,204.59c.56-1.63,1.36-3.19,1.89-4.85a37,37,0,0,1,2-4.58,85.61,85.61,0,0,1,7.43-12.64,106.89,106.89,0,0,1,11.23-13.45A127.67,127.67,0,0,1,94,158.59a163.12,163.12,0,0,1,17-11.93,195.76,195.76,0,0,1,23.11-12.06,228.61,228.61,0,0,1,28.8-10.43,273,273,0,0,1,38.17-8.08,6.56,6.56,0,0,0,2.36-.38C204.14,115.83,204.11,116.48,204.33,117Z" transform="translate(-36.06 -63.11)"/><path class="cls-21" d="M247.24,65.25c2.42.63,4.9.94,7.3,1.72a73.63,73.63,0,0,1,8.27,3.69,47.86,47.86,0,0,1,10,8.73,36.1,36.1,0,0,1,4.29,7,29.74,29.74,0,0,1,3.47,12.39,1.86,1.86,0,0,0,.22.55v2.34c-.33,1.23.08,2.49-.23,3.72A31.13,31.13,0,0,1,277,117.1a11.38,11.38,0,0,0-.5,1.26c-2.18,5.67-6.41,9.61-11.18,13a37.56,37.56,0,0,1-22.89,7.26,38.25,38.25,0,0,1-7.56-.42,43.38,43.38,0,0,1-10.6-3.32c-.63-.26-1.35-.48-1.61-1.24a50.62,50.62,0,0,1-7.15-5,30.25,30.25,0,0,1-3.13-3.07A36.83,36.83,0,0,1,204,109.5a28.13,28.13,0,0,1-.43-13.88c1-4,1.86-8.2,4.18-11.8,1.15-1.53,2.25-3.09,3.46-4.57,6.22-7.63,14.31-12,23.94-13.74A46.61,46.61,0,0,1,247.24,65.25Z" transform="translate(-36.06 -63.11)"/><path class="cls-22" d="M222.62,133.67a45.13,45.13,0,0,0,12.2,4.21,28.68,28.68,0,0,0,3.3.64c1.29.24,1.4.46,1,1.8a36.4,36.4,0,0,1-11.25-2.23,33.34,33.34,0,0,1-8.93-4.36c.36-.19.71-.43,1.12-.14A2.79,2.79,0,0,0,222.62,133.67Z" transform="translate(-36.06 -63.11)"/><path class="cls-4" d="M164.76,114.8a.76.76,0,0,1,.3,0c.52.31,1.42.11,1.47,1a.39.39,0,0,1-.54.36c-.74-.19-1.33-.54-1.23-1.45Z" transform="translate(-36.06 -63.11)"/><path class="cls-23" d="M239.07,140.32c.21-1.06-.32-1.48-1.31-1.68s-2.06-.11-2.94-.76a48.92,48.92,0,0,0,12.85.11,39,39,0,0,0,28.79-19.63,4.55,4.55,0,0,1-.42,2.18,1.29,1.29,0,0,0,.48,1.56c-2.51,4.52-6.32,7.78-10.4,10.78a40.06,40.06,0,0,1-15.3,6.66A40.69,40.69,0,0,1,239.07,140.32Z" transform="translate(-36.06 -63.11)"/><path class="cls-17" d="M280.51,105.36a15,15,0,0,1,.23-3.72A9.33,9.33,0,0,1,280.51,105.36Z" transform="translate(-36.06 -63.11)"/><path d="M320.68,329.44A129.89,129.89,0,0,1,307.51,333c-7.15,1.7-14.36,3.06-21.63,4.15a296.22,296.22,0,0,1-54.46,3.09,289.08,289.08,0,0,1-41.4-4.38,256.73,256.73,0,0,1-31.54-7.72,224.73,224.73,0,0,1-22.73-8.46A193.63,193.63,0,0,1,118.24,311a168.21,168.21,0,0,1-17-10.8c-4-3-7.92-6.08-11.65-9.42A121.92,121.92,0,0,1,78.1,279a100.77,100.77,0,0,1-11.51-16.78A83.72,83.72,0,0,1,60.78,248c-4.22-12.57-4.09-25.27-1-38a60.94,60.94,0,0,1,3.93-11.22,110.16,110.16,0,0,1,10.77-2.41c5.83-1.19,11.72-2,17.61-2.8,5.5-.78,11-1.14,16.55-1.77,1.28-.15,1.63.26,1.63,1.54q-.06,24.41,0,48.82c0,2,0,2,2,2h15.06c.53,0,1.13.24,1.56-.3l.06-.29A11,11,0,0,0,129,241V192.1a1.16,1.16,0,0,1,1.06-1.28c1.45-.16,2.92-.42,4.3.37a7.76,7.76,0,0,1,2.28,4,47,47,0,0,1,1.77,11.23c.6,11.6.15,23.21.29,34.81,0,2,.13,2.08,2.06,2.09h13.08c2.1,0,2.17-.07,2.17-2.27V209.27A41.1,41.1,0,0,1,158.79,194a3.65,3.65,0,0,1,1-1.69c2.08-.17,4.17-.38,6.09.78a5.49,5.49,0,0,1,.32,2.69v44.59c0,3,0,3,3,3H181c2.8,0,2.8,0,2.8-2.88V200c0-.93-.27-2,.55-2.73.19-.88.58-1.42,1.62-1.2,3.09.65,6.19,1.26,9.28,1.89a1,1,0,0,1,.64.59,2.27,2.27,0,0,1,.26,2c-1.81,13.61-1.7,27.3-1.62,41,0,1.59.19,1.77,1.74,1.78h13.85c1.25,0,1.71-.49,1.69-1.72V233c0-2.22.48-2.67,2.69-2.7h5.18c2,.05,2.49.53,2.52,2.57.05,2.84,0,5.68,0,8.52,0,1.87.12,2,2,2h13.24c1.89,0,2-.14,2.05-2V217.91c0-1.27-.35-2.52-.29-3.79a2.39,2.39,0,0,1,.52-2c3.22,1.54,6.57,2.8,9.69,4.55.68.71.49,1.62.5,2.46v21.76c0,2.32.07,2.39,2.39,2.39h13.09c2.37,0,2.41,0,2.41-2.35v-11a8.38,8.38,0,0,1,.13-2.12c.22-.77.79-.74,1.28-.39,2.33,1.63,5,2.82,7,4.91a23.11,23.11,0,0,1,.93,5.48c.22,1.49.35,3,.56,4.48a1.71,1.71,0,0,1-.24,1.44c.42.55,1,.3,1.55.31h10.16a2.55,2.55,0,0,1,2,.8c3.2,3.35,6.5,6.59,9.46,10.17,1.08,1.31,2.15,2.64,3.27,3.92a2,2,0,0,1-1.54.51H107.07c-2.86,0-2.86,0-3.4,2.86a1.46,1.46,0,0,1-.38.81c.48.72,1.21.37,1.81.37H305.46a3,3,0,0,1,3,1.86c2,3.66,4.38,7.15,6.17,11,.49,1.06,1.34,2,1.12,3.35a3.57,3.57,0,0,1,0,3.6c2.63.48,2.88,2.78,3.47,4.72a83.41,83.41,0,0,1,3.25,18.54,80.27,80.27,0,0,1-1.88,22.5A1.64,1.64,0,0,0,320.68,329.44Z" transform="translate(-36.06 -63.11)"/><path class="cls-24" d="M160,192.44A37.94,37.94,0,0,0,156.63,208q-.09,17.1,0,34.21c0,1.51-.43,1.81-1.85,1.79-5-.1-10-.08-15,0-1.2,0-1.52-.32-1.51-1.51q.07-14.37,0-28.74c0-5.58-.13-11.15-1.47-16.61a13.18,13.18,0,0,0-2.41-5.62c-1.29-1.2-1.88-2.87-2.91-4.24a10.11,10.11,0,0,0-1.78-2.18c-.45.48-.3,1-.32,1.39-.26,8.81-.17,17.62-.17,26.44v29a2.74,2.74,0,0,1-.3,1.9H112c-1.13,0-1.45-.28-1.45-1.43.06-7.71,0-15.42,0-23.12v-53c0-2,0-2,1.93-2h21.61a2.62,2.62,0,0,1,2.31,1.09,56.52,56.52,0,0,1,9.41,15.83c.48,1.31,1.18,2.53,1.85,3.94l1.41-3.88a61.29,61.29,0,0,1,8-14,29.82,29.82,0,0,1,2.35-2.55c.4-.45.91-.37,1.41-.37h22.22c1.09,0,1.34.37,1.33,1.39q-.06,15.22,0,30.43a5.35,5.35,0,0,0,.07,1.06c0,15-.05,29.92,0,44.88,0,1.44-.29,1.87-1.8,1.84-5-.11-10-.09-15.06,0-1.35,0-1.7-.34-1.69-1.68.05-15.77,0-31.54,0-47.32,0-.65-.06-1.31-.09-2-.57-.52-.41-1.22-.42-1.85-.06-2,0-4,.08-6.15a18,18,0,0,0-4.19,5.71A4,4,0,0,1,160,192.44Z" transform="translate(-36.06 -63.11)"/><path class="cls-24" d="M277.45,243.87q-.79-5.77-1.58-11.55a4.46,4.46,0,0,1-.7-2.3c-.79-6.55-1.62-13.09-2.45-19.63-.22-1.78-1.54-2.52-3.25-1.87a1,1,0,0,0-.66.92,11.64,11.64,0,0,0,0,1.67v14.16a2.91,2.91,0,0,1-.42,2.17c0,5-.08,10,0,15.06,0,1.23-.36,1.5-1.52,1.49q-7.92-.09-15.83,0c-1.15,0-1.54-.27-1.53-1.51V166.12c0-1.33.34-1.72,1.68-1.71,8.21.06,16.43,0,24.65.07,5.09,0,10,.89,14.21,4a12.53,12.53,0,0,1,4.26,6.69c1.88,6,2.79,12.19,1.65,18.37-.73,3.92-1.4,8.18-5.2,10.74-.5.34-.31.78-.23,1.23q1.79,10.78,3.55,21.58c.45,2.69.77,5.42,1.42,8.07.58,2.4,1,4.82,1.46,7.23.23,1.11,0,1.6-1.32,1.58C289.52,243.88,283.48,243.89,277.45,243.87Z" transform="translate(-36.06 -63.11)"/><path class="cls-24" d="M334.36,226a135.93,135.93,0,0,1,1-19.45c1.25-8.84,2.27-17.79,5.58-26.18a73.85,73.85,0,0,1,5.55-11.93c.74-1.2,1.61-2.31,2.37-3.5a1.21,1.21,0,0,1,1.18-.48H365a1.51,1.51,0,0,1,1.44.86,87.49,87.49,0,0,1,8.88,19.37c3.22,10,4.16,20.26,4.81,30.61.57,9.12.23,18.25.36,27.37,0,1.1-.37,1.35-1.4,1.35-5.23-.05-10.45-.06-15.68,0-1.17,0-1.45-.37-1.43-1.48.07-3.35,0-6.7,0-10,0-1.21-.26-1.73-1.6-1.65-2.07.11-4.16.06-6.24,0-1.08,0-1.51.33-1.49,1.49.07,3.45,0,6.9,0,10.35,0,1-.23,1.32-1.26,1.31q-7.92-.07-15.83,0c-1,0-1.29-.3-1.28-1.29C334.38,237.77,334.36,232.85,334.36,226Z" transform="translate(-36.06 -63.11)"/><path class="cls-24" d="M239.71,212.22c.13,4.76.3,9.53.36,14.29.07,5.37,0,10.75,0,16.13,0,.89-.1,1.35-1.2,1.34-5.38,0-10.76,0-16.13,0-.94,0-1.22-.25-1.21-1.2V232.14c0-1-.22-1.36-1.26-1.32-2.28.07-4.57.07-6.85,0-1,0-1.19.33-1.18,1.23V242.7c0,1-.27,1.29-1.27,1.28-5.33,0-10.66,0-16,0-.83,0-1.14-.18-1.14-1.08,0-13.13-.22-26.27,1.27-39.35.19-1.66.41-3.32.61-5,.48-2.53.79-5.1,1.49-7.57,1.68-5.92,3.2-11.92,5.93-17.47,1.41-2.84,3.16-5.5,4.73-8.27a1.46,1.46,0,0,1,1.45-.84h14.75c1.9,0,2.29,1.84,3,3,1.88,2.82,3.07,6,4.55,9.09,3.34,6.93,4.52,14.4,6.1,21.81C238.89,202.91,239,207.59,239.71,212.22Z" transform="translate(-36.06 -63.11)"/><path class="cls-24" d="M305.5,204.14v-38c0-1.32.29-1.73,1.66-1.71,5.18.09,10.35.06,15.53,0,1,0,1.38.24,1.38,1.34v76.84c0,1-.22,1.4-1.33,1.39q-7.92-.09-15.83,0c-1.21,0-1.4-.42-1.4-1.49Q305.52,223.31,305.5,204.14Z" transform="translate(-36.06 -63.11)"/><path class="cls-25" d="M103.3,263.27c.07-1.3-.55-3,.26-3.81s2.5-.28,3.8-.28h194c.86,0,1.72-.06,2.58-.1.5,0,1,.09,1.51.09h74.9c1.53,0,2.17.35,1.9,1.91a2.78,2.78,0,0,0,0,.91c.21,1.25-.39,1.48-1.53,1.48H105.31A16.89,16.89,0,0,0,103.3,263.27Z" transform="translate(-36.06 -63.11)"/><path class="cls-26" d="M358.29,300.19c-2.64,0-5.28.08-7.91,0-2.86-.11-4.16-1.53-4.31-4.34,0-.79.22-1.12,1-1.19a7.73,7.73,0,0,0,1.65-.3c1.19-.37,2.13-.49,1.9,1.27-.09.64.39.72.89.72,4.56,0,9.15.23,13.68-.11,1.87-.13.47-2.24.84-3.39.24-.78-.15-1.16-1-1.15H353.16c-4.39.08-6.11-.92-6.21-6.19a10,10,0,0,1,.8-3.77,2.94,2.94,0,0,1,2.87-1.89c5.37-.22,10.75-.25,16.11,0,2.22.1,3.38,1.72,3.33,4a.91.91,0,0,1-.81,1h0c-.59.13-1.19.26-1.77.44-1,.32-1.89.4-1.63-1.15.09-.59-.26-.79-.82-.79H352.37c-.62,0-1,.22-.88.89a.38.38,0,0,1,0,.15c-.19,3.35-.19,3.34,3.13,3.35h11.11c3.39,0,4.58,1.46,4.86,5a11.86,11.86,0,0,1-.38,4.59c-.68,2.22-2.15,2.81-4.08,2.87-2.59.08-5.17,0-7.76,0Z" transform="translate(-36.06 -63.11)"/><path class="cls-27" d="M315.85,283.38a12.7,12.7,0,0,1,0-3.59c7.86,0,15.72,0,23.57-.07,1,0,1.28.36,1.19,1.25a3.76,3.76,0,0,0,0,1.06c.13,1-.26,1.43-1.35,1.4-2.33-.07-4.66,0-7,0-1.13,0-1.48.28-1.47,1.44.07,4.66,0,9.32.06,14,0,1.14-.31,1.46-1.45,1.45-3.6,0-3.6,0-3.6-3.53v-12c0-1-.23-1.35-1.27-1.33C321.63,283.44,318.74,283.39,315.85,283.38Z" transform="translate(-36.06 -63.11)"/><path class="cls-28" d="M210.07,90.42a26.59,26.59,0,0,1,5.54-9.28,34.88,34.88,0,0,1,31.92-11.29,32.54,32.54,0,0,1,15.11,6.25,35.53,35.53,0,0,1,9.44,10.72,33.25,33.25,0,0,1,3.71,11.09,11.53,11.53,0,0,1,.07,1.66c-.83-.13-1,1-1.76.94a1.29,1.29,0,0,1-.4-1.1c0-4.59-1.82-8.61-4-12.43-4.4-7.67-11.22-12.25-19.67-14.39a32.3,32.3,0,0,0-23.35,2.55,26.42,26.42,0,0,0-8.9,6.75,33.85,33.85,0,0,0-4.88,6.93,1.52,1.52,0,0,1-.7.78,1,1,0,0,0-1,.44C211,90.45,210.64,90.86,210.07,90.42Z" transform="translate(-36.06 -63.11)"/><path class="cls-29" d="M272.87,115.41c-1.65,2.57-3,5.33-5.21,7.56a35,35,0,0,1-20.57,10.72,39.49,39.49,0,0,1-10.75,0,8.83,8.83,0,0,1-1-.3c1.25-1,2.62,0,3.93-.24-.69-.6-2,.16-2.4-1a3.09,3.09,0,0,1,2.48-.35,30.06,30.06,0,0,0,14.7-2.16,30.91,30.91,0,0,0,15-12.06,1.76,1.76,0,0,1,.76-.72c.7,0,1-.69,1.61-1S272.24,115.13,272.87,115.41Z" transform="translate(-36.06 -63.11)"/><path class="cls-30" d="M221.1,127.29c-1.07-.15-1.55-1.08-2.25-1.69a32.46,32.46,0,0,1-8.44-11.32,26.67,26.67,0,0,1-2.67-10.74c.32,0,.42.17.52.41s.09.39.29.53c.46-.19.28-.82.69-1,1-.14.92.6,1,1.17A26.38,26.38,0,0,0,214,116.5a28.33,28.33,0,0,0,7.33,8.35c.37.27.75.51.85,1A2.13,2.13,0,0,0,221.1,127.29Z" transform="translate(-36.06 -63.11)"/><path class="cls-31" d="M221.1,127.29c.15-.5-.87-.71-.33-1.28s.83.15,1.26,0a1.71,1.71,0,0,1,1.39.39,33.9,33.9,0,0,0,11.65,4.84c.67.16,1.42.19,1.86.86,1.09.55,2.35.33,3.6.82a2.1,2.1,0,0,1-2.47.6,9.47,9.47,0,0,0-2.71-.15A30.41,30.41,0,0,1,221.1,127.29Z" transform="translate(-36.06 -63.11)"/><path class="cls-32" d="M272.87,115.41c-.72.6-1.72.78-2.22,1.76-.32.61-.45,0-.57-.3-.32-.59,0-1.1.26-1.57A30.07,30.07,0,0,0,274,101.65a1.44,1.44,0,0,1,.38-1.12c.39-.49.18-1.91,1.5-1A30.25,30.25,0,0,1,272.87,115.41Z" transform="translate(-36.06 -63.11)"/><path class="cls-33" d="M209.26,103.47c0,.25,0,.49-.06.74,0,.53-.18,1-.69,1-.74,0-.38-.63-.5-1a6,6,0,0,0-.27-.67A29.42,29.42,0,0,1,209,92.35a10,10,0,0,1,1.05-1.93c.62,0,.81-.35,1-.9.34-1,.68-.61.94.09a1,1,0,0,1,.13,1A66.37,66.37,0,0,0,210,98.34a3.41,3.41,0,0,0-.39,2.32C209.6,101.62,209.9,102.61,209.26,103.47Z" transform="translate(-36.06 -63.11)"/><path class="cls-34" d="M163.53,279.76h8.67c3.62.09,4.66,1.17,4.7,4.81s0,7.3,0,10.95c0,3.42-1.12,4.6-4.56,4.65q-8.9.12-17.79,0c-3.41-.05-4.4-1.16-4.43-4.58q-.06-5.77,0-11.56c0-3,1.08-4.14,4.12-4.24s6.19,0,9.28,0Z" transform="translate(-36.06 -63.11)"/><path class="cls-24" d="M208.31,293.71V281c0-1,.2-1.31,1.24-1.3,3.36,0,3.36,0,3.36,3.28v16c0,.95-.21,1.26-1.24,1.31a5.49,5.49,0,0,1-4.1-1.46c-4.83-4.23-10.16-7.85-14.91-12.18-.23-.22-.47-.46-.79-.32s-.14.52-.13.79c0,4.06,0,8.12.11,12.17,0,.73-.22.93-.94,1-3.36.18-3.36.2-3.36-3.11V282c0-.71-.44-1.8.34-2.06a4.16,4.16,0,0,1,3.12.1,11.69,11.69,0,0,1,2.09,1.46c3.24,2.6,6.39,5.3,9.7,7.81C204.69,290.65,206.51,292.13,208.31,293.71Z" transform="translate(-36.06 -63.11)"/><path class="cls-34" d="M235.47,279.79c2.54,0,5.08-.07,7.61,0,2.95.11,4,1.16,4.12,4.12s.61,2.49-2.36,3h-.15c-2.52.37-2.56.37-2.54-2.2,0-1-.22-1.32-1.25-1.3-3.71.06-7.41,0-11.11,0-.84,0-1.15.22-1.14,1.1q.06,5.4,0,10.8c0,.77.19,1.07,1,1.06,3.8,0,7.61-.05,11.41,0,.93,0,1-.37,1.06-1.16,0-3.22.06-3.11,3.18-2.67,1.61.23,2.21.86,1.94,2.43-.13.69-.08,1.41-.2,2.11-.37,2-1.1,2.9-3.2,3a155.42,155.42,0,0,1-16.72,0c-2.57-.14-3.41-1.21-3.54-3.85-.11-2-.05-4-.05-5.93v-6.08c.07-3.23,1.11-4.33,4.29-4.43,2.54-.08,5.07,0,7.61,0Z" transform="translate(-36.06 -63.11)"/><path class="cls-34" d="M128.39,279.78c2.54,0,5.08-.07,7.61,0a4.67,4.67,0,0,1,4.31,5,4.62,4.62,0,0,1-.31,1.37.65.65,0,0,1-.56.42c-.3.06-.59.14-.9.18-1,.13-2.2.65-3,.28s-.29-1.81-.37-2.77c0-.66-.27-.87-.91-.87h-12c-.69,0-.86.29-.86.92v11.11c0,.76.3.92,1,.92h11.87c.76,0,1-.29.92-1a1.77,1.77,0,0,1,0-.46c.1-.94-.29-2.64.2-2.68a15.62,15.62,0,0,1,4.29.73c.13,0,.29.31.29.47,0,1.72.2,3.46-.58,5.08a3.05,3.05,0,0,1-2.92,1.62c-5.42.07-10.86.15-16.28,0-2.76-.08-3.82-1.43-3.85-4.23q-.09-5.85,0-11.72c0-3,1.27-4.25,4.24-4.36,2.58-.09,5.17,0,7.76,0Z" transform="translate(-36.06 -63.11)"/><path class="cls-27" d="M268.81,300.24h-9.9c-1,0-1.28-.28-1.27-1.27V281c0-1,.19-1.33,1.24-1.32,6.6,0,13.19.07,19.79,0,1.74,0,1.15,1.12,1.22,2s.15,1.61-1.24,1.58c-4.82-.1-9.65,0-14.47-.06-1.13,0-1.45.28-1.44,1.43,0,3.17,0,3.17,3.17,3.17,1.93,0,3.86,0,5.78,0,1,0,1.29.31,1.17,1.22a2.78,2.78,0,0,0,0,.91c.17,1.11-.21,1.51-1.39,1.47-2.49-.1-5,0-7.46,0-.87,0-1.24.16-1.26,1.15-.09,3.88-.12,3.88,3.81,3.88h12c1.13,0,1.62.21,1.57,1.49-.09,2.42,0,2.43-2.38,2.43Z" transform="translate(-36.06 -63.11)"/><path class="cls-27" d="M299.65,279.76h9c2.78,0,4.19,1.53,4.33,4.49.09,1.87.41,3.79-.47,5.64a3.49,3.49,0,0,1-2.69,2.17,40.57,40.57,0,0,1-6.52.19c-2.53,0-5.07.06-7.6,0-1.11,0-1.53.24-1.47,1.42.1,1.87,0,3.75,0,5.63,0,.69-.18.93-.92,1-4.06.23-4.06.25-4.06-3.77V281.18c0-1.16.33-1.45,1.45-1.42,3,.07,6,0,9,0Z" transform="translate(-36.06 -63.11)"/><path class="cls-19" d="M268.33,227.44c0-6.08,0-12.16-.07-18.24,0-.8.18-1.15,1.09-1.18,3.39-.1,3.47-.15,3.93,3.22.92,6.77,1.74,13.55,2.6,20.33q0,.38,0,.75Q272.09,229.89,268.33,227.44Z" transform="translate(-36.06 -63.11)"/><path class="cls-35" d="M128.83,243.86V185.22c0-.42-.24-1.05.23-1.23s.8.47,1.09.83a28.11,28.11,0,0,1,4.12,6.69c-1.35-.64-2.79-.21-4.18-.31-.52,0-.7.31-.7.78v50.26C129.41,242.79,129.86,243.62,128.83,243.86Z" transform="translate(-36.06 -63.11)"/><path class="cls-36" d="M160,192.44a24.51,24.51,0,0,1,5.74-8.54V193Z" transform="translate(-36.06 -63.11)"/><path class="cls-37" d="M170.82,236.59c-.42-.43-.22-1-.22-1.45V173.23c0-1.3.39-1.61,1.63-1.61s1.62.32,1.62,1.61v61.31c0,2.55-.41,2.83-3,2.06,2.25-.46,2.32-2,2.31-3.94-.07-11.92,0-23.83,0-35.74a7.4,7.4,0,0,0-.11-1.82.8.8,0,0,0-.93-.6c-.44,0-.6.31-.65.7a11.61,11.61,0,0,0-.06,1.67V234C171.34,234.87,171.51,235.82,170.82,236.59Z" transform="translate(-36.06 -63.11)"/><path class="cls-38" d="M115.43,236.56c-.44-.48-.23-1.07-.23-1.6V173.68c0-1.86,1.24-2.66,3-2a.64.64,0,0,1,.46.68v62.06c0,2.65-.65,3.06-3.35,2.16a1.52,1.52,0,0,1,.51-.32c2-.66,2-.66,2-2.74V194.41a11,11,0,0,0,0-1.52.81.81,0,0,0-.83-.79h-.1a.88.88,0,0,0-1,.74h0a9.22,9.22,0,0,0-.09,1.82v39.26A3.67,3.67,0,0,1,115.43,236.56Z" transform="translate(-36.06 -63.11)"/><path class="cls-39" d="M143.05,204.15c.53,1.55,1.07,3.09,1.72,5l1.2-3.6h.16v3.34c0,8.71-.08,17.43,0,26.14,0,1.54-.49,1.88-1.9,1.8-1-.06-1.17-.39-1.16-1.27V225.23C143,218.23,143.21,211.24,143.05,204.15Z" transform="translate(-36.06 -63.11)"/><path class="cls-40" d="M154.05,182.65c1.32-4.2,3.7-7.4,6.08-10.58.62-.84,1.7-.42,2.56-.3.41.06.13.5-.06.71-1.7,1.92-3.21,4-5,5.82A51.36,51.36,0,0,0,154.05,182.65Z" transform="translate(-36.06 -63.11)"/><path class="cls-41" d="M135,182.3c-2.8-3.59-6-6.84-9-10.32,2.31-.66,2.95-.45,4.14,1.25a52.07,52.07,0,0,1,4,7C134.42,180.89,134.64,181.6,135,182.3Z" transform="translate(-36.06 -63.11)"/><path class="cls-38" d="M275.11,200.76c7-3.23,7.45-9.28,7.37-15.55a19.91,19.91,0,0,0-.46-4.07,11.52,11.52,0,0,0-6.51-8.44c-.49-.23-1-.48-1.6-.79,6.81-.07,9.89,1.9,11.09,8a38.76,38.76,0,0,1,0,15.4,4.9,4.9,0,0,1-2.87,3.61c-3.12,1.55-3.15,1.61-2.6,5,1.39,8.59,2.74,17.19,4.33,25.75.37,2,.81,4,1.24,6,.18.84-.08,1-.89,1.1-2.77.16-2.82.12-3.14-2.55-.82-6.63-1.43-13.3-2.57-19.88-.71-4.08-1.18-8.17-1.74-12.26C276.66,201.16,276.28,200.65,275.11,200.76Z" transform="translate(-36.06 -63.11)"/><path class="cls-38" d="M254.36,219.52V173.14c0-1.24.41-1.49,1.56-1.51s1.43.41,1.42,1.5v17c-.11,9.54.87,19.07.5,28.62,0,.66-.07,1.31-.1,2C256.27,221.05,255.37,220.15,254.36,219.52Z" transform="translate(-36.06 -63.11)"/><path class="cls-19" d="M267.7,186.45v-7c0-.5-.08-1.06.71-1a35.69,35.69,0,0,1,4.85.16,4.63,4.63,0,0,1,4,4,19.41,19.41,0,0,1-.23,8.87,3.7,3.7,0,0,1-2.76,2.76,21.89,21.89,0,0,1-5.88.42c-.78,0-.74-.5-.73-1Z" transform="translate(-36.06 -63.11)"/><path class="cls-42" d="M254.36,219.52c1.23,0,2.1,1,3.27,1.23q.06,7.6.11,15.21a.71.71,0,0,1-.58.82h-.07c-2.21.44-2.78,0-2.77-2.21Q254.34,227.05,254.36,219.52Z" transform="translate(-36.06 -63.11)"/><path class="cls-19" d="M357.33,181.29c2.08,5.05,2.89,10.33,3.48,15.64a163.7,163.7,0,0,1,1.07,17.42c0,1.15-.21,1.63-1.47,1.57-2.17-.11-4.35,0-6.53,0-.77,0-1.26-.13-1.18-1.08,1-10.94,1.07-22,4.27-32.67A7.39,7.39,0,0,1,357.33,181.29Z" transform="translate(-36.06 -63.11)"/><path class="cls-38" d="M343.47,197.6c-.84,8.39-.82,16.82-1.15,25.24-1.93.44-2.17,2.06-2.27,3.57-.17,2.57-.06,5.15,0,7.72,0,.63.11,1.34.86,1.4s.9-.75.9-1.3c0-2.92.38-5.85-.24-8.75a3.16,3.16,0,0,1,.79-2.66,1.9,1.9,0,0,0,1.44.32h21.76c.83,0,1.43,0,1.41-1.16-.22-10.44-.25-20.9-2.12-31.21A86.75,86.75,0,0,0,362,178.89a8.33,8.33,0,0,1-.16-1c.33.64.5.93.64,1.24A80.91,80.91,0,0,1,368.51,202c1.46,11,1.54,22.14,1.55,33.24,0,1.27-.42,1.52-1.56,1.5s-1.79-.05-1.75-1.51c.11-3.4,0-6.8.06-10.19,0-1.15-.25-1.6-1.5-1.59q-10.72.09-21.45,0c-1,0-1.3.32-1.29,1.31,0,3.5-.06,7,.06,10.49.05,1.52-.75,1.45-1.79,1.47s-1.64-.09-1.61-1.45c.12-5.22.09-10.44.13-15.67a12.38,12.38,0,0,1,.19-1.49c.52.4.39,1,.47,1.53s.12.86.67.84.66-.42.63-.86a15.46,15.46,0,0,0-.28-4.07,2.68,2.68,0,0,1,.32-2.45,2.26,2.26,0,0,0,.23-2.31,4.49,4.49,0,0,1-.2-2.54,7.26,7.26,0,0,0,0-2.71,2.19,2.19,0,0,1,.25-1.62,4.42,4.42,0,0,0,.26-4.34,4,4,0,0,1-.25-1.18,3.41,3.41,0,0,1,.3-1.89A14.64,14.64,0,0,1,343.47,197.6Z" transform="translate(-36.06 -63.11)"/><path class="cls-43" d="M341.65,198.5c1,.86,1.57,3.54.9,4.61a3.54,3.54,0,0,0-.61,3.26,3.15,3.15,0,0,1-.1,1.64,3.43,3.43,0,0,0-.11,1.93,3.55,3.55,0,0,1-.54,4.27c-.22.24,0,.58.08.86.81,1.67.16,3.5.57,5.23.19.78-.68.76-1.16.89a.83.83,0,0,1-1.07-.48.82.82,0,0,1-.05-.38v-2.12a137.19,137.19,0,0,1,1.6-19.09A.64.64,0,0,1,341.65,198.5Z" transform="translate(-36.06 -63.11)"/><path class="cls-43" d="M343.47,197.6c-.75,0-1.44,0-1.52-1a75,75,0,0,1,4.89-17.76.42.42,0,0,1,.5-.34h.05C345.06,184.68,344.38,191.17,343.47,197.6Z" transform="translate(-36.06 -63.11)"/><path class="cls-44" d="M202.57,200.06c-.5,7.13-.69,14.28-.81,21.42,0,1.36.33,1.7,1.68,1.69q10.58-.1,21.15,0c1.28,0,1.74-.22,1.68-1.64-.2-4.71-.24-9.43-.35-14.14.09-.84.71-.66,1.2-.58a2.54,2.54,0,0,1,1.53.84,178,178,0,0,1,1,20.65v7.3c0,1-.28,1.2-1.2,1.2-2.29,0-2.29,0-2.29-2.26V224.8c0-.93-.28-1.18-1.22-1.18q-10.8.06-21.61,0c-1.1,0-1.49.23-1.47,1.41.09,3.5,0,7,.06,10.5,0,1.39-.74,1.23-1.62,1.26s-1.46,0-1.46-1.24c0-11.42.06-22.82,1.59-34.16.09-.65.23-1.3.35-1.95C201.61,199,202.27,199,202.57,200.06Z" transform="translate(-36.06 -63.11)"/><path class="cls-19" d="M212.92,203.37c.53-7.49,1.36-14.93,4.15-22.27a103.51,103.51,0,0,1,3.73,24.11c-.65.27-1.18-.14-1.74-.32A23.71,23.71,0,0,0,212.92,203.37Z" transform="translate(-36.06 -63.11)"/><path class="cls-42" d="M212.92,203.37c.28-.25.41-.61,1-.44a46.46,46.46,0,0,1,6.9,2.28c.89,3.11.5,6.32.77,9.47.08.93-.16,1.25-1.14,1.23-2.33-.07-4.66-.06-7,0-.89,0-1.12-.29-1.07-1.14C212.57,211,212.74,207.17,212.92,203.37Z" transform="translate(-36.06 -63.11)"/><path class="cls-45" d="M228.65,207.65c-.94.21-1.72-1.21-2.73-.26-.28-3.28-.53-6.55-.84-9.83a96.7,96.7,0,0,0-3.15-17.47,1.52,1.52,0,0,1-.06-1.3A65.34,65.34,0,0,1,225,187.9a98.49,98.49,0,0,1,3.61,18.24C228.67,206.64,228.64,207.15,228.65,207.65Z" transform="translate(-36.06 -63.11)"/><path class="cls-46" d="M202.57,200.06a2,2,0,0,0-1.8-.62,70,70,0,0,1,6-20.71c-.5,2-1,3.89-1.48,5.86A132.8,132.8,0,0,0,202.57,200.06Z" transform="translate(-36.06 -63.11)"/><path class="cls-47" d="M310.35,204.3v-31c0-1.25.32-1.67,1.6-1.62s1.89.06,1.89,1.66q-.09,31.2,0,62.4c0,.91-.3,1.11-1.12,1.13-2.35.06-2.34.09-2.34-2.24Q310.37,219.44,310.35,204.3Z" transform="translate(-36.06 -63.11)"/><path class="cls-48" d="M209.79,98.35A42.64,42.64,0,0,1,212,89.61c.55-1,1-2.09,1.66-3.06,6.18-9.42,14.87-14.62,26.15-15.33a33,33,0,0,1,20.48,5.45,30.76,30.76,0,0,1,11.77,14.24c1.35,3.15,1.75,6.36,2.28,9.62a29.68,29.68,0,0,1-1.38,9.81c-.82,2.23-1.92,4.35-2.9,6.53a30.44,30.44,0,0,1-7.51,8.4,33.2,33.2,0,0,1-17.47,7c-2.74.27-5.44-.1-8.17-.1a38.18,38.18,0,0,1-14.9-6.09,32.15,32.15,0,0,1-6.89-6.89,24.14,24.14,0,0,1-4.35-9.09,22.12,22.12,0,0,1-1-5.65c0-.41,0-.84-.53-1v-2.9C209.78,99.91,209.27,99,209.79,98.35Z" transform="translate(-36.06 -63.11)"/><path class="cls-30" d="M209.79,98.35c-.12.75.42,1.66-.52,2.22C209.33,99.8,208.77,98.89,209.79,98.35Z" transform="translate(-36.06 -63.11)"/><path d="M163.55,283.41h7.14c.85,0,1.15.24,1.14,1.11,0,3.6-.05,7.2,0,10.8,0,.93-.37,1.06-1.16,1.06h-14.3c-.88,0-1.26-.18-1.25-1.17.06-3.5,0-7,0-10.49,0-1,.23-1.35,1.28-1.31C158.78,283.46,161.16,283.41,163.55,283.41Z" transform="translate(-36.06 -63.11)"/><path class="cls-49" d="M300.57,288.69h-5.31c-.78,0-1-.24-1-1-.19-4.42-.21-4.43,4.19-4.42h7.43c2,.08,2.23.4,2.26,2.37v.91c.08,1.46-.57,2.14-2.06,2.11h-5.46Z" transform="translate(-36.06 -63.11)"/><path class="cls-50" d="M170.82,236.59V195.51c0-1.91.41-2.18,2.21-1.54a.73.73,0,0,1,.52.8v38.95c0,2.75,0,2.75-2.77,2.88Z" transform="translate(-36.06 -63.11)"/><path class="cls-51" d="M115.43,236.56V194.74a11.64,11.64,0,0,0,0-1.67c-.18-1.3.38-1.6,1.61-1.63s1.45.59,1.45,1.65V234.3c0,2.62.25,2.2-2.29,2.24h-.76Z" transform="translate(-36.06 -63.11)"/><path class="cls-43" d="M342.32,222.82c-.4,3.55.18,7.1,0,10.64a5.39,5.39,0,0,1-.17,1.65c-.2.55-.15,1.33-1.06,1.12-.75-.16-1.5-.45-1.5-1.41,0-3-.06-6,0-9,0-.91.77-1.72.62-2.73-.06-.37.25-.44.62-.39s1,.1,1.5.11Z" transform="translate(-36.06 -63.11)"/><path class="cls-52" d="M221.94,118.78a.57.57,0,0,1,0-1,1.94,1.94,0,0,1,2.39-.4c-.45-.43-1-.63-1.44-1a1.09,1.09,0,0,1-.4-1.46c.31-.57.85-.41,1.35-.3s.93.56,1.76.65c-1.28-.94-1.09-2.37-1.75-3.43a.9.9,0,0,1,.09-1.26,1,1,0,0,1,.25-.15c.63-.29.87.28,1.16.68a6.17,6.17,0,0,1,.48.77,2.83,2.83,0,0,1,.17.4,4.85,4.85,0,0,0,.49,1.26,2.23,2.23,0,0,0,2.12,1.22,1.86,1.86,0,0,0,1.74-1.27c.42-1.17,1-1.39,2-.62.69.53,1.33.13,1.9-.34a2.17,2.17,0,0,1,.41-.19,11.92,11.92,0,0,1,2.23-.27,4.26,4.26,0,0,0,3.11-.36c.93-.68.4-1.48.07-2.14s-.93-.17-1.42,0c-.8.26-1.4-.44-2.14-.48-.67-.46-.84-1.12-.3-1.68.74-.77,1.06-2,2.38-2.19.38,0,.47-1.86,0-2.16-1-.65-.85-1.29-.47-2.29a4.1,4.1,0,0,0-2.5-5.22,4.25,4.25,0,0,0-1.27-.23c-1.54-.11-2.81.53-4.2.89.07-1.28.63-2,1.84-2,3.29,0,5.93-1.71,8.61-3.3a7.59,7.59,0,0,1,1.17-.68c1.84-.72,1.84-.73,1.56-2.3,1.58.33,2.08,1.5,2.11,2.91,0,1.19.26,1.78,1.58,1.17a9.36,9.36,0,0,1,9.1.41c.8.47,1.75-.28,2.65-.38a28.2,28.2,0,0,1,4.86-.2A16,16,0,0,1,267.39,93c1.57.54,2.13,2,3.53,2.6s.89,1.75.69,2.8c-.9,0-1.17,1.44-2.27.94-1.26-1.55-2.38-3.2-4.23-4.2s-3.61-.79-5.47-.76c-.73,0-.79.44-.56,1a8.2,8.2,0,0,1,.73,2.46c.14,2.16-.87,4-1.77,5.83a2.65,2.65,0,0,0-.12,2.45c.14.35.29.64.11,1-1.79,1.06-4,.42-5.83,1.65-1,.66-1.78,1.45-2.68,2.16-.46.3-.65.85-1.06,1.19-.51-.45-1-.21-1.56,0-.44-.53-.43-1.22-.77-1.94,0,1.21-.43,1.84-1.63,1.12-.3-.17-.74-.36-.86.15s.34.54.66.69c.77.36,1.6-.18,2.37.2-.21,1.47-1.42,1.14-2.23,1a2.88,2.88,0,0,0-2.33.71,15.25,15.25,0,0,1-4.07,2.33c-2.31.83-4.16,2.48-6.32,3.59l-.08.06h-.1a16.29,16.29,0,0,1-3.42.11,7.12,7.12,0,0,0-2.78.44l-3.36,1.2c-.42-.55-.24-1,.15-1.49S222.73,119.16,221.94,118.78Z" transform="translate(-36.06 -63.11)"/><path class="cls-53" d="M231.75,120a18.73,18.73,0,0,1,6.19-4,13.32,13.32,0,0,0,4.69-3c.5-.54.87-.21,1.35-.15,1,.12,2,.5,2.64-.64a.39.39,0,0,1,.28-.29c.61-.12.16-1.1.84-1.09s.23,1,.78,1.14c.51-.19.94.22,1.42.2s1.23.07,1.29-.79c-.48-.49-1.19-.09-1.68-.46a1.07,1.07,0,0,1-.14-.16,8,8,0,0,1,4.75-3.33c1-.28,2.17.12,3.09-.8.21-.21.4.36.66.48,1.3,1.63,1.28,1.86-.27,3.23a1.35,1.35,0,0,0-.46.75c-.38,1.64-.39,1.64-1.84,1.07.34.52.73.74,1.14.67.59-.09.71-.5.7-1,0-.67,0-1.34.76-1.62a.9.9,0,0,1,.46,0c1.66.36,1.82.64,1.21,2.15a13.55,13.55,0,0,1,.1,1.42c-.28,1-1.15,1.39-2,1.8-2.21,1.13-4.41,2.28-6.51,3.61a4.38,4.38,0,0,1-2.48.55h-14.3a3.31,3.31,0,0,0-1.5.12Z" transform="translate(-36.06 -63.11)"/><path class="cls-54" d="M243.36,87.93c0,.54.62.62.86,1s.36,1-.34,1.15c-2.84.44-4.9,2.5-7.44,3.57a9.51,9.51,0,0,1-3.92.92,2.12,2.12,0,0,0-2.3,1.63c.14.24,0,.43-.14.61a9.47,9.47,0,0,1-4.39,3c-.77.27-1.35.29-1.86-.38-.75-1.37-.16-2.67.28-3.93.32-.9.14-1.11-.77-1.22a8.6,8.6,0,0,0-7.62,2.89,5.44,5.44,0,0,0-1.12,5.54,6,6,0,0,1,.51,1.9,4.45,4.45,0,0,1,0,.73c-.06.38-.08.82-.52,1-.59.22-.54-.37-.75-.64s-.45-.17-.64-.33c-.91-1.07-1.91-2.13-1.71-3.67.07-.49-.18-.74-.32-1.09-.56-1.41.67-4.55,2.09-5.23.47-.22.51-.56.65-.92s.49-.95,1-.87c1.48.28,2.31-1.06,3.63-1.38,2.06-.49,4-.16,5.94-.14a8.52,8.52,0,0,1,2.61.4c.86.27,1.57-.81,2.53-1,1.91-.44,3.74-.72,5.56.27.91.18,1.7,1,2.73.55h0c.64-.61,0-1.55.59-2.18a2.18,2.18,0,0,1,.93-1.51c1.36.89,1.67-.54,2.38-1.08.32-.25.19-1.15,1-.7Z" transform="translate(-36.06 -63.11)"/><path class="cls-52" d="M213.18,105.36c.7-.24.84.5,1.26.8.46-.59.14-1.23.31-1.78a1.43,1.43,0,0,1,1.68,1c.47,1,1.11,1.37,2.18.87s1.53-.06,1.57,1a2.18,2.18,0,0,0,.91-.46c.78-.5,1.3-.39,1.86.44a14.14,14.14,0,0,0,2.62,2.79,1.13,1.13,0,0,1,.37.28c.38.65.69,1.3-.19,1.82-.56-.16-.69-.69-1-1.11-.14-.23-.3-.43-.6-.25s-.41.44-.22.63c1,1,.33,2.82,1.83,3.55.35.17.53.49.2.85a.66.66,0,0,1-.92.13l-.08-.07a2.83,2.83,0,0,0-1.27-.77c-.37-.06-.81-.45-1.06.07a.78.78,0,0,0,.27,1.07.88.88,0,0,0,.3.1c.69.16,1,.8,1.63,1.07.24.1.43.35.25.6a.45.45,0,0,1-.64,0l0,0a2.39,2.39,0,0,0-2.57-.16c.13-.47-.2-.64-.54-.77-.8-.3-1.15-.69-.31-1.37.09-.07.11-.23.17-.35-1.27-.14-1.22-2-2.6-2a1.11,1.11,0,0,1-1.15-1.07,1,1,0,0,1,.06-.41c.09-.45.59-.84.06-1.36-.79-.77-1.28-1.83-2.3-2.38-.53-.29-.68.21-1,.44a1,1,0,0,1-1.41,0l-.09-.1a.88.88,0,0,1,0-1.24.86.86,0,0,1,.27-.2C213.93,106.46,213.91,106,213.18,105.36Z" transform="translate(-36.06 -63.11)"/><path class="cls-52" d="M233,119.94c.46-.47,1-.28,1.58-.28,4,0,8.09-.07,12.13,0a8.55,8.55,0,0,0,5.53-1.47,53.26,53.26,0,0,1,5.3-2.89c.76-.43,1.76-.63,2-1.72,1-.11,2.2.26,2.72-1.08,1.07-.74,2.41-1.1,3.22-2.23a.37.37,0,0,1,.52,0l0,0c-.1.29-.36.63-.27.84.57,1.46.13,2-1.41,2.42a2.48,2.48,0,0,0-1.59,2.53,6.2,6.2,0,0,1-.92,2.93c-.27.52-.52.78.1,1.19.41.26.85.64.48,1.25a.93.93,0,0,1-1.28.3l-.07,0c-3.53-1.79-7.35-1.68-11.14-1.7C244.21,119.93,238.59,120,233,119.94Z" transform="translate(-36.06 -63.11)"/><path class="cls-55" d="M265.94,110.27a7,7,0,0,1-3.76,2.41c-.27.16-.64,0-.86.23-.93.73-1.53.15-2.13-.48-.14-.56.15-.9.67-1.16a5.37,5.37,0,0,0-2-.77,23.38,23.38,0,0,1,2.78-3.18c.23-.19.41-.45.65-.63.81-.63,1.76.62,2,.28.47-.76.85-1,1.66-.67a1.69,1.69,0,0,0,2.31-.66,1.24,1.24,0,0,0,.1-.2,21.11,21.11,0,0,0,1.53-2.43,4,4,0,0,0,.24-2.51c-.1-.47-.38-1,.32-1.28.71,0,1-.52,1.34-1,.43-.64.6,0,.88.11.79.76,1.89,1.48.35,2.56.42,1.32-.3,2.34-.87,3.4v.29c-1.2.92-1.56,1.88-.33,3.08.19.19,0,.72-.3.93s-.9.31-1.13,0c-.83-1.16-1.28-.27-1.83.25Z" transform="translate(-36.06 -63.11)"/><path class="cls-56" d="M242.73,86.79c-.65.66-1.13,1.45-1.79,2.12-.86.87-1.29.83-1.59-.34.37-.66,1.71-1,1.15-1.88s-1.19.56-2,.47V83.43c.68,0,1.14.66,1.88.54.4-.68-.44-1.16-.29-1.91,1.11,0,2.29.49,3.38-.37.09.92-.92,1.65-.33,2.14s1.34-.33,2.15-.62c.14,1.37-.27,2.69.14,4C244.42,87.15,243.76,85.79,242.73,86.79Z" transform="translate(-36.06 -63.11)"/><path class="cls-52" d="M225.37,120.55c.77-.83,1.78-.55,2.71-.57h3.49Z" transform="translate(-36.06 -63.11)"/><path class="cls-52" d="M221.94,118.78c1,.18.76.92.48,1.44a2.67,2.67,0,0,0-.41,1.53c-.87-.42-.75-1-.14-1.49S222.38,119.29,221.94,118.78Z" transform="translate(-36.06 -63.11)"/><path class="cls-52" d="M238.42,90.08c-.13.75.58,1.72-.59,2.18C238.11,91.55,237.36,90.57,238.42,90.08Z" transform="translate(-36.06 -63.11)"/><path class="cls-52" d="M237.84,92.25c-1.1.73-1.88-.09-2.73-.55C236.08,91.56,236.86,92.41,237.84,92.25Z" transform="translate(-36.06 -63.11)"/><path class="cls-57" d="M269.42,99.22c-.41,1.08.61,2.1,0,3.26-.78,1.54-1.37,3.12-2.88,4.22-1.12.82-1.75-.3-2.74-.37l-.1,1.55c-.48.07-.66-.3-.89-.53-.9-.92-1.44-.44-2.11.35-.87,1-1.9,1.88-2.86,2.8a1,1,0,0,0-.48,1.33.3.3,0,0,0,0,.08c.34.79-.15,1.19-.75,1.35a1.54,1.54,0,0,1-2-.58.73.73,0,0,1,.13-1,.72.72,0,0,1,1,0,8.31,8.31,0,0,1,.77,1,7.87,7.87,0,0,1,1.88-3.28c.66-.56-.66-1.35-.52-2.19s-.79-1.5-.65-2.57c.07-.53-.54-1,.47-1.16.14,0,.37-.12.37-.2.18-2.42,2.42-4.5.91-7.24-1.12-2-.92-2.1,1.34-2.22A9.65,9.65,0,0,1,268,96.69,6.49,6.49,0,0,1,269.42,99.22Z" transform="translate(-36.06 -63.11)"/><path class="cls-52" d="M224.09,99.29c.39.3.69.62,1.31.29,1.5-.79,3.19-1.26,4.18-2.82.06-.11.26-.14.39-.21a1,1,0,0,1,0,1,3.27,3.27,0,0,0,.41,3,11.18,11.18,0,0,1,1.68,4.28c0,.2.06.46.3.41,2.06-.41,2,1.65,2.85,2.56a4.89,4.89,0,0,0,1.41,1.19c.37,0,.76-.36,1.11.08s.57.42,1,.07c1.11-.91,1.69-.48,1.88.83.11.74.75,1.54-.34,2.06-.29-.44-.3-1.2-1.24-.61-1.21.75-1.36.62-1.88-.89-.31.55,0,1.22-.31,1.8a5.53,5.53,0,0,1-2.42.29c-.1-.74.26-1.51-.12-2.07.16,1.31-1.35.65-2,1.26.58.71,1.55.2,2.08.8-.69,1.16-1.55,1.31-2.56.4-.47-.41-.89-.6-1.07.23a2.26,2.26,0,0,1-2.51,1.91c-1.55-.07-2.37-1-2.65-2.87.52,0,.79.41,1.21.57a1.05,1.05,0,0,0,1.45-.38.61.61,0,0,0,.07-.14c-.59-.33-.83.65-1.37.25a2.16,2.16,0,0,1-.9-1.52,1,1,0,0,0-.5-.87h0a1.6,1.6,0,0,1-.9-2c.13-.69.39-1.35.57-2,.25-1,.91-1.81-.1-3.08C224.55,102.25,223.6,100.82,224.09,99.29Z" transform="translate(-36.06 -63.11)"/><path class="cls-57" d="M236.67,109c-1.84.4-1.73-1.53-2.56-2.29-1.06-1-.85-1.2-2.43-.87a6,6,0,0,0-1.33-4.61,4.23,4.23,0,0,1-.38-4.7l.25-.35c2.1-2,4.52-1.4,6.85-.7,1.43.43,2.27,4.47,1.31,6-.34.53-.56.74.14,1.06s1.31.85.68,1.86c-.29.48.26,1,.41,1.76-.63-.42-1.57-1.12-1.7-.25C237.72,107.09,235.23,107.31,236.67,109Z" transform="translate(-36.06 -63.11)"/><path class="cls-21" d="M251.85,106c-1-.77-1.76-.55-2.19.39s-1.78,1.09-1.39,2.4c.06.22-.32.15-.49.14s-.62.17-.56-.23c.2-1.33-1.26-1.71-1.54-2.8-.19-.79-.84-.32-1.39,0,.15-.81.49-1.43.09-2.07a.53.53,0,0,1,.12-.74l.08,0c1.25-.58.83-1.42.52-2.36-.56-1.7.48-3.23.64-4.87,0-.08.13-.15.2-.22,1.14-1,5.79-.83,6.92.26,1.57,1.51,1.54,3.64-.06,5.73A7.74,7.74,0,0,0,251.85,106Z" transform="translate(-36.06 -63.11)"/><path class="cls-58" d="M246.9,112l-.28.29a3,3,0,0,1-3.15-.07.9.9,0,0,1-.42-1.19.75.75,0,0,1,.07-.12.8.8,0,0,1,1.09-.29.41.41,0,0,1,.11.07c1.31,1.23,1.54.52,1.57-.78,0-.13.27-.26.61-.57C246.38,110.4,247.16,111.08,246.9,112Z" transform="translate(-36.06 -63.11)"/><path class="cls-57" d="M236.89,112.36c-.81-1,.16-1.84.12-2.77a.48.48,0,0,1,.54.46c0,1.42.37,2.15,1.71.79a.75.75,0,0,1,1-.1c.58.39.3.87.09,1.32A3.49,3.49,0,0,1,236.89,112.36Z" transform="translate(-36.06 -63.11)"/><path class="cls-59" d="M225.65,110.22c1,.36.86,1.57,1.57,2.18.29.11.3-.18.38-.32.21-.36.43-.74.92-.52a.9.9,0,0,1,.44.55.88.88,0,0,1-.46,1,1.93,1.93,0,0,1-2.66-.55,1.51,1.51,0,0,1-.15-.28.86.86,0,0,0,.06-.23C226.26,111.43,225.91,110.83,225.65,110.22Z" transform="translate(-36.06 -63.11)"/><path class="cls-21" d="M251.81,111.23c-.3,1.75-1.61,2.08-3.29.82,0-.61,0-1.26.89-1.21h0C250.12,111.55,251.11,110.5,251.81,111.23Z" transform="translate(-36.06 -63.11)"/><path class="cls-57" d="M259.19,112.43c1,.63,2-.18,3,.25-.26,1.45-1,1.71-2.72.9A1.86,1.86,0,0,1,259.19,112.43Z" transform="translate(-36.06 -63.11)"/><path class="cls-52" d="M251.81,111.23a2.32,2.32,0,0,0-1.62.11c-.43.16-.81.14-.78-.49C250.2,111.05,251.13,110.35,251.81,111.23Z" transform="translate(-36.06 -63.11)"/><path class="cls-60" d="M224.09,99.29c.15,1.37,1.29,2.36,1.33,3.82,0,.69,1.26.16,1.6.86-1.22.93-1.13,2.43-1.62,3.68-.38,1-.66,1.82.28,2.59a1.25,1.25,0,0,1-1.37-1c-.32-.94-1.85-1.1-2-2.4,0-.3-.5-.14-.77,0l-1.71,1.1c-.42-.55,0-1,0-1.51-.51-.37-.91,0-1.26.2a1.41,1.41,0,0,1-2-.23,1.46,1.46,0,0,1-.28-.59,2.52,2.52,0,0,0-1.52-1.49,6.56,6.56,0,0,1-.58-5c.39-1.11.5-2.55,2-3,.9-.26,1.07-1.24,2-1.68,2.1-1,4.25-.77,6.4-.84,1,0,.38.66.23,1.07C224.22,96.35,223.53,97.73,224.09,99.29Z" transform="translate(-36.06 -63.11)"/><path class="cls-61" d="M223.69,111.92a1.23,1.23,0,0,1,.23,1.72,1.25,1.25,0,0,1-.23.23c-.53.5-1.11.31-1.67,0s-.73-.56-.47-1.09a.62.62,0,0,1,.78-.41.61.61,0,0,1,.22.13C223.37,113.21,223.39,112.38,223.69,111.92Z" transform="translate(-36.06 -63.11)"/><path class="cls-62" d="M234.48,112.64a4.39,4.39,0,0,1-2.1,0,.87.87,0,0,1-.66-.9.54.54,0,0,1,.48-.61.5.5,0,0,1,.21,0c1.34.27,2-.12,1.88-1.69-.16,1.16,1.5,2.08.18,3.23Z" transform="translate(-36.06 -63.11)"/></svg>